<?xml version="1.0" standalone="no"?>
<!DOCTYPE svg PUBLIC "-//W3C//DTD SVG 20010904//EN"
 "http://www.w3.org/TR/2001/REC-SVG-20010904/DTD/svg10.dtd">
<svg version="1.0" xmlns="http://www.w3.org/2000/svg"
 width="64.000000pt" height="64.000000pt" viewBox="0 0 64.000000 64.000000"
 preserveAspectRatio="xMidYMid meet">

<g transform="translate(0.000000,64.000000) scale(0.100000,-0.100000)"
fill="#000000" stroke="none">
<path d="M238 605 c-55 -37 -78 -82 -78 -150 0 -68 23 -113 78 -150 l37 -25
-53 0 c-51 0 -52 -1 -52 -29 0 -15 -5 -43 -11 -61 -8 -23 -9 -34 -1 -39 6 -3
12 -27 14 -51 3 -44 4 -45 39 -48 32 -3 36 -6 31 -28 l-4 -24 101 0 101 0 0
64 c0 47 7 78 25 118 14 29 25 63 25 76 0 20 -5 22 -52 22 l-53 0 37 25 c55
37 78 82 78 151 0 69 -27 118 -83 153 -50 31 -131 29 -179 -4z m137 5 c16 -7
12 -9 -20 -9 -22 -1 -50 -4 -62 -7 -13 -4 -23 -2 -23 4 0 19 69 27 105 12z
m-111 -52 c4 -18 18 -50 32 -71 24 -37 26 -77 3 -77 -28 0 -90 144 -74 170 13
20 33 9 39 -22z m188 2 c10 -12 18 -25 18 -29 0 -3 -41 -6 -90 -6 -79 0 -91 2
-96 19 -11 33 22 47 100 42 37 -3 54 -9 68 -26z m-212 -100 c7 -14 21 -35 32
-47 16 -17 18 -25 8 -43 -16 -29 -29 -22 -67 34 -35 51 -41 88 -21 131 l12 26
11 -38 c6 -21 17 -49 25 -63z m210 46 c23 -8 36 -20 38 -34 3 -19 1 -20 -30
-11 -18 5 -54 9 -81 7 -39 -1 -50 2 -62 19 -14 19 -13 22 2 26 34 9 98 5 133
-7z m-70 -74 c0 -24 -49 -97 -77 -117 -12 -8 -29 -12 -38 -9 -14 6 -13 10 8
33 14 14 34 45 46 69 23 45 61 60 61 24z m70 1 c-1 -59 -70 -143 -116 -143
-23 0 -23 1 10 45 19 25 40 61 47 80 10 26 19 35 36 35 15 0 23 -6 23 -17z
m34 -15 c-10 -34 -32 -76 -44 -83 -6 -3 -1 17 10 45 11 28 20 53 20 55 0 3 5
5 11 5 6 0 8 -9 3 -22z m-260 -55 c19 -23 24 -33 13 -33 -19 0 -33 18 -52 66
-8 22 -10 31 -2 20 6 -11 25 -34 41 -53z m246 -116 c0 -6 -11 -33 -25 -59 -19
-35 -25 -62 -25 -108 l0 -60 -79 0 c-78 0 -78 0 -73 25 4 23 2 25 -37 25 l-41
0 0 44 c0 24 -4 46 -9 48 -5 2 -4 24 2 51 l12 47 137 0 c104 0 138 -3 138 -13z"/>
</g>
</svg>
